<?xml version="1.0" encoding="UTF-8" standalone="no"?>
<svg width="800px" height="800px" viewBox="0 0 800 800" fill-rule="evenodd" version="1.1" xmlns="http://www.w3.org/2000/svg" xmlns:xlink="http://www.w3.org/1999/xlink">
  <g transform="translate(400, 400)">
    <path fill="none" stroke="#000000" stroke-width="20" d="M-2.1244667977130716,-2.1242795474374065Q-18.858937555765902,-18.82152604095528,-23.529063604507915,-23.278673112445976C-30.534252677620934,-29.96439371968202,-41.42077016711932,-40.24500522736718,-48.8257272851332,-46.69575026234434S-64.75393992798595,-60.348818930465185,-72.89544439126708,-66.28364001229372S-93.45214786987943,-80.86591937130687,-103.10242370700732,-86.26122414120121S-127.0682627945893,-98.52612910307184,-137.23061663878633,-102.25233847825598S-159.612878624729,-109.60338607759367,-170.8514493349875,-111.10261997576211S-200.3973758665934,-113.50567226851642,-212.15442137384304,-112.24723113271229S-238.00897371946454,-107.88870216761131,-249.2317527166518,-102.7130124037346S-277.76593954184085,-86.57455341371221,-286.97294802175827,-77.74263270686754S-305.66339193630347,-55.91974885107471,-310.61180924943443,-43.83354102477013S-320.3250604058339,-11.075929467514932,-319.9623967759645,2.8320861351629856S-313.7392923193565,37.090133788503735,-308.1940517169722,48.886562993082634S-292.56664213738986,73.11221465344272,-282.9941260934025,81.47494749902228S-255.74868979593202,99.95242862235432,-244.37727809038964,104.63811529694631S-218.91315187421588,111.86540791896265,-207.18471472311992,112.71285866296887S-177.31633834704104,112.09721283723219,-166.18769708308315,110.28778692365451S-143.01828011205646,104.58141673947016,-132.9937729634006,100.65001923911765S-108.8723824682295,89.61268219801083,-99.35764942537749,84.07847025463786S-77.602102147729,69.76823740680776,-69.56221934438716,63.75527294996458S-53.09628310808752,50.48430757508998,-45.7584307364319,43.992040542350054S-27.613185935761148,27.178515564759053,-20.643203533349677,20.473492731698418S-6.1349691826581765,6.064678693202701,0.7081186129778995,-0.7081116780541674S17.990329849516826,-17.98275131355278,24.977381770890823,-24.678443076680697S39.84837695991679,-38.917394237297465,47.28846475547121,-45.34605676557362S65.92193825762104,-61.23823304841432,74.57796707458697,-67.53619326518839S95.91630892670683,-82.24359769177119,104.99532353524408,-87.33245821073406S124.87368827882467,-97.84245839231411,135.10473113150195,-101.46193005827419S162.0178264538421,-109.80625518477177,173.20227588642592,-111.46226931713458S197.90229753175046,-113.97065215506922,209.66772734872742,-112.50202427402628S240.3381216259769,-106.60156476936727,251.63847466627226,-101.67141677684839S275.99052136772167,-88.6964924790748,285.0034142840298,-79.63437099056704S306.4749395842643,-53.202429168715,311.7244274416598,-41.25727352012994S320.3434750950775,-13.145170044491177,320,0S315.2925747289408,33.88762324358583,309.4345934744766,46.37719344314456S290.3403469139129,74.66511019809657,280.94679163690563,83.26380133039154S258.2469829436365,99.25930353435038,246.81089162776152,103.70180099177774S216.45084347246953,111.82908858874768,204.7061828644059,112.88045104657395S179.58441965341405,112.6703742576277,168.51315424067062,110.71088404395289S140.9912328334294,103.64735173419128,130.89774677944962,99.81718295540851S110.17436964696144,90.39551623778586,101.22324721413875,85.1764255187345S79.77177377442179,71.40462697601696,71.22359722729836,65.02324482839947S51.60628138451997,49.10581747966046,44.235403566649246,42.63387786795123S29.038392329481255,28.590704362646235,22.084411774826908,21.87698075033794Q17.448424738390674,17.401165008799076,-2.1244667977130716,-2.1242795474374065"></path>
  </g>
</svg>
